<?xml version="1.0"?>
<svg xmlns="http://www.w3.org/2000/svg" id="Outline" viewBox="0 0 512 512" width="512" height="512"><path d="M272,80h16V96a8,8,0,0,0,16,0V80h16a8,8,0,0,0,0-16H304V48a8,8,0,0,0-16,0V64H272a8,8,0,0,0,0,16Z"/><path d="M328,152a8,8,0,0,0,0,16h16v16a8,8,0,0,0,16,0V168h16a8,8,0,0,0,0-16H360V136a8,8,0,0,0-16,0v16Z"/><path d="M424,288H352a8,8,0,0,0-8,8v64a8,8,0,0,0,8,8h72a8,8,0,0,0,8-8V296A8,8,0,0,0,424,288Zm-8,16v16H360V304Zm-56,48V336h56v16Z"/><path d="M176,328H144a8,8,0,0,0-6.4,3.2l-24,32A8,8,0,0,0,120,376h56a8,8,0,0,0,8-8V336A8,8,0,0,0,176,328Zm-8,32H136l12-16h20Z"/><path d="M434.752,143c25.753,0,49.474-14.462,60.433-36.843a8,8,0,0,0-8.657-11.382,53.459,53.459,0,0,1-9.81.916c-27.985,0-50.752-21.782-50.752-48.557a46.391,46.391,0,0,1,4.392-19.752A8,8,0,0,0,421.6,16.143C390.543,22.1,368,48.515,368,78.947,368,114.266,397.944,143,434.752,143ZM410.859,36.55a62.731,62.731,0,0,0-.893,10.584c0,34.07,27.429,62.06,62.053,64.4A52.286,52.286,0,0,1,434.752,127C406.768,127,384,105.444,384,78.947,384,60.914,394.713,44.742,410.859,36.55Z"/><path d="M408,240H241.615l-10.667-16H256a8,8,0,0,0,7.155-11.578L220.944,128H240a8,8,0,0,0,6.91-12.031l-56-96a8,8,0,0,0-13.82,0L142.667,78.98,126.91,51.969a8,8,0,0,0-13.82,0l-56,96A8,8,0,0,0,64,160H83.056L40.845,244.422A8,8,0,0,0,48,256H72v1.578L17.344,339.562A8,8,0,0,0,24,352H79.355l-21.6,27A8,8,0,0,0,56,384v56a8,8,0,0,0,8,8h56.805a40,40,0,1,0,78.39,0h129.61a40,40,0,1,0,78.39,0H464a8,8,0,0,0,7.663-5.7C472.656,438.986,496,360.8,496,328a87.995,87.995,0,0,0-88-88ZM184,39.877,226.072,112H208a8,8,0,0,0-7.155,11.578L243.056,208H216a8,8,0,0,0-6.656,12.438L222.385,240H196.944l-40-80H176a8,8,0,0,0,6.91-12.031L151.928,94.857Zm-80.845,115.7A8,8,0,0,0,96,144H77.928L120,71.877,162.072,144H144a8,8,0,0,0-7.155,11.578L179.056,240H60.944ZM38.948,336,72,286.422V304a8,8,0,0,0,8,8h31.355l-19.2,24ZM160,480a24,24,0,1,1,24-24A24.028,24.028,0,0,1,160,480Zm0-64a39.964,39.964,0,0,0-32,16.028V432H72V386.806L131.845,312H200V432h-8.022A39.962,39.962,0,0,0,160,416Zm208,64a24,24,0,1,1,24-24A24.028,24.028,0,0,1,368,480Zm90-48H399.978a39.957,39.957,0,0,0-63.978.028V432H216V400h17.376A24.038,24.038,0,0,0,256,416h32a24.039,24.039,0,0,0,22.624-16h156.1C463.238,413.588,459.916,425.371,458,432ZM248,336h48v56a8.009,8.009,0,0,1-8,8H256a8.009,8.009,0,0,1-8-8Zm48-16H248V296a8.009,8.009,0,0,1,8-8h32a8.009,8.009,0,0,1,8,8Zm174.693,64H312V296a24.027,24.027,0,0,0-24-24H256a24.027,24.027,0,0,0-24,24v88H216V304a8,8,0,0,0-8-8H88V256H408a71.994,71.994,0,0,1,72,72C480,341.114,475.658,363.123,470.693,384Z"/></svg>
