<?xml version="1.0"?>
<svg xmlns="http://www.w3.org/2000/svg" viewBox="0 0 74 74" width="512" height="512"><g id="Icons"><path d="M61.2,71.406H19.564a1,1,0,0,1-1-1V43.686a1,1,0,0,1,.294-.708l20.974-20.9a1,1,0,0,1,.706-.292h0a1,1,0,0,1,.707.3l20.658,20.9a1,1,0,0,1,.289.7v26.72A1,1,0,0,1,61.2,71.406Zm-40.632-2H60.2V44.1L40.533,24.2,20.564,44.1Z"/><path d="M49.266,59.9H31.919a1,1,0,0,1-1-1V41.549a1,1,0,0,1,1-1H49.266a1,1,0,0,1,1,1V58.9A1,1,0,0,1,49.266,59.9Zm-16.347-2H48.266V42.549H32.919Z"/><path d="M40.593,59.9a1,1,0,0,1-1-1V41.549a1,1,0,0,1,2,0V58.9A1,1,0,0,1,40.593,59.9Z"/><path d="M64.3,44.1a.961.961,0,0,1-.19-.019,1,1,0,0,1-.642-.427L45.409,16.567,18.09,34.55a1.012,1.012,0,0,1-.754.144,1,1,0,0,1-.634-.434l-4.258-6.545a1,1,0,0,1,.275-1.372L47.335,2.768a1,1,0,0,1,1.4.275l23.1,34.93a1,1,0,0,1-.271,1.378l-6.7,4.573A1,1,0,0,1,64.3,44.1ZM45.688,14.185a1,1,0,0,1,.833.445L64.569,41.7l5.053-3.448-22-33.263L14.654,27.445l3.176,4.881L45.14,14.35A1,1,0,0,1,45.688,14.185Z"/><path d="M26.923,13.167H4.268a1,1,0,0,1,0-2H26.923A3.157,3.157,0,1,0,23.772,8a1,1,0,1,1-2,0,5.151,5.151,0,1,1,5.15,5.163Z"/><path d="M10.517,25.292H3a1,1,0,0,1,0-2h7.517a3.157,3.157,0,1,0-3.15-3.164,1,1,0,0,1-2,0,5.151,5.151,0,1,1,5.15,5.164Z"/><path d="M11.962,56.833a5.156,5.156,0,0,1-5.15-5.15,1,1,0,0,1,2,0,3.15,3.15,0,1,0,3.15-3.163H3.189a1,1,0,0,1,0-2h8.772a5.157,5.157,0,0,1,0,10.313Z"/><path d="M10.05,31.087H3a1,1,0,1,1,0-2h7.05a1,1,0,0,1,0,2Z"/><path d="M14.1,36.975H3a1,1,0,0,1,0-2H14.1a1,1,0,0,1,0,2Z"/><path d="M17.619,42.549H7.316a1,1,0,0,1,0-2h10.3a1,1,0,0,1,0,2Z"/></g></svg>
