<svg height="512pt" viewBox="-43 0 512 512.00061" width="512pt" xmlns="http://www.w3.org/2000/svg"><path d="m203.128906 461.4375c-4.207031-.820312-8.097656 2.027344-8.820312 5.894531-.972656 4.667969 2.714844 8.96875 7.351562 8.96875 4.023438 0 7.5-3.265625 7.5-7.5 0-3.394531-2.300781-6.578125-6.03125-7.363281zm0 0"/><path d="m228.5 446.757812c0-3.398437-2.320312-6.578124-6.039062-7.351562-4.597657-.910156-8.960938 2.585938-8.960938 7.351562 0 4.253907 3.480469 7.5 7.5 7.5 4.195312 0 7.5-3.441406 7.5-7.5zm0 0"/><path d="m228.890625 480.691406c4.066406 0 7.503906-3.3125 7.503906-7.5 0-3.570312-2.480469-6.621094-6.042969-7.359375-4.609374-.914062-8.960937 2.617188-8.960937 7.359375 0 4.179688 3.425781 7.5 7.5 7.5zm0 0"/><path d="m248.234375 458.648438c4.195313 0 7.5-3.433594 7.5-7.488282 0-4.707031-4.308594-8.277344-8.96875-7.363281-3.730469.773437-6.042969 3.988281-6.042969 7.363281 0 4.070313 3.320313 7.488282 7.511719 7.488282zm0 0"/><path d="m247.835938 424.722656c0-3.410156-2.324219-6.589844-6.03125-7.359375-4.535157-.910156-8.972657 2.550781-8.972657 7.359375 0 4.085938 3.332031 7.503906 7.5 7.503906 4.078125 0 7.503907-3.296874 7.503907-7.503906zm0 0"/><path d="m382.757812 381.007812-10.964843 2.644532c-4.027344.972656-6.503907 5.027344-5.53125 9.054687.972656 4.023438 5.027343 6.503907 9.050781 5.53125l10.964844-2.648437c10.175781-2.457032 20.570312 3.097656 24.191406 12.914062 4.105469 11.128906-2.246094 23.320313-13.695312 26.351563l-39.402344 10.421875c-13.003906 3.445312-26.808594-2.28125-33.558594-13.921875l-15.699219-27.078125c10.128907 2.402344 20.109375 3.285156 31.308594 1.972656 4.113281-.480469 7.058594-4.210938 6.574219-8.324219-.480469-4.113281-4.207032-7.050781-8.324219-6.574219-8.457031.992188-16.945313.5-25.230469-1.464843l-14.695312-3.480469-75.714844-130.578125 17.863281-30.808594c3.59375.671875 7.15625.464844 10.496094-.511719 0-.003906 0-.003906 0-.003906 5.339844-1.570312 10.15625-5.183594 13.121094-10.300781 4.5625-7.867187 97.359375-167.898437 104.613281-180.410156 6.242188-10.757813 2.582031-24.519531-8.179688-30.761719-10.738281-6.222656-24.535156-2.554688-30.761718 8.183594l-104.609375 180.40625c-4.871094 8.394531-3.769531 18.699218 2.34375 25.871094l-13.558594 23.378906-13.550781-23.367188c6-7.0625 7.246094-17.421875 2.339844-25.882812l-104.613282-180.410156c-6.222656-10.734376-20.023437-14.402344-30.761718-8.179688-10.734376 6.226562-14.402344 20.023438-8.179688 30.761719 7.296875 12.582031 100.09375 172.617187 104.613281 180.410156 4.699219 8.097656 14.03125 12.609375 23.617188 10.816406l17.863281 30.808594-75.714844 130.578125-14.691406 3.480469c-20.78125 4.921875-32.296875.300781-70.316406-8.878907-17.570313-4.246093-35.535156 5.347657-41.789063 22.304688-7.148437 19.390625 3.964844 40.757812 23.9375 46.046875 43.046875 11.390625 43.316407 11.910156 50.835938 11.910156 15.742187 0 30.777343-8.3125 38.9375-22.390625 2.925781-5.046875 97.476562-168.097656 97.476562-168.097656s94.519531 163.003906 97.472657 168.097656c8.164062 14.078125 23.191406 22.390625 38.9375 22.390625 7.523437 0 7.796874-.523437 50.835937-11.914062 19.933594-5.273438 31.101563-26.621094 23.9375-46.042969-6.253906-16.957031-24.222656-26.546875-41.789063-22.304688zm-40.59375-362.269531c2.074219-3.582031 6.679688-4.804687 10.257813-2.730469 3.585937 2.082032 4.808594 6.667969 2.726563 10.257813l-85.691407 147.785156-13.082031-7.367187zm-104.613281 180.40625 11.296875-19.480469 13.082032 7.363282-11.394532 19.648437c-2.046875 3.53125-6.609375 4.84375-10.257812 2.730469-3.585938-2.085938-4.808594-6.671875-2.726563-10.261719zm-80.285156-25.09375-85.695313-147.785156c-2.074218-3.578125-.851562-8.179687 2.730469-10.257813 3.578125-2.074218 8.183594-.851562 10.257813 2.730469l85.789062 147.945313zm29.175781 35.351563c-3.652344 2.117187-8.210937.800781-10.257812-2.726563l-11.390625-19.648437 13.078125-7.363282 11.296875 19.480469c2.078125 3.582031.851562 8.183594-2.726563 10.257813zm-83.535156 221.953125c-6.75 11.640625-20.542969 17.363281-33.558594 13.921875l-39.398437-10.421875c-11.46875-3.039063-17.796875-15.238281-13.699219-26.351563 3.625-9.835937 14.035156-15.363281 24.191406-12.914062 38.496094 9.296875 52.28125 14.832031 78.164063 8.6875zm0 0"/><path d="m277.648438 429.605469c3.988281-1.117188 6.316406-5.257813 5.195312-9.246094-14.878906-53.097656-81.644531-70.316406-120.46875-31.492187-28.128906 28.132812-28.128906 73.90625 0 102.035156 14.066406 14.066406 32.539062 21.101562 51.019531 21.097656 32.746094-.003906 60.832031-21.835938 69.449219-52.585938 1.121094-3.992187-1.207031-8.128906-5.195312-9.25-3.996094-1.117187-8.132813 1.210938-9.25 5.199219-11.757813 41.960938-64.613282 55.730469-95.414063 24.929688-22.28125-22.277344-22.28125-58.535157 0-80.816407 30.804687-30.804687 83.660156-17.023437 95.414063 24.929688 1.121093 3.992188 5.265624 6.316406 9.25 5.199219zm0 0"/></svg>