<svg height="418pt" viewBox="-4 0 418 418.80576" width="418pt" xmlns="http://www.w3.org/2000/svg"><path d="m205.203125 157.011719c-22.585937 0-40.960937-18.371094-40.960937-40.957031 0-22.585938 18.375-40.960938 40.960937-40.960938s40.960937 18.375 40.960937 40.960938c0 22.585937-18.375 40.957031-40.960937 40.957031zm0-68.265625c-15.054687 0-27.308594 12.246094-27.308594 27.308594 0 15.058593 12.253907 27.304687 27.308594 27.304687s27.304687-12.246094 27.304687-27.304687c0-15.0625-12.25-27.308594-27.304687-27.308594zm0 0"/><path d="m254.066406 207.125c-1.976562 0-3.941406-.851562-5.289062-2.507812-2.386719-2.917969-1.957032-7.21875.964844-9.605469.628906-.511719 1.15625-1.140625 1.574218-1.859375l65.179688-116.601563c.957031-1.660156 1.203125-3.5.730468-5.257812-.472656-1.761719-1.601562-3.234375-3.183593-4.148438-3.261719-1.898437-7.441407-.757812-9.320313 2.5l-57.148437 102.234375c-1.839844 3.28125-6.003907 4.453125-9.292969 2.625-3.292969-1.839844-4.46875-6-2.628906-9.292968l57.199218-102.3125c5.691407-9.851563 18.238282-13.226563 28.019532-7.578126 4.742187 2.738282 8.128906 7.160157 9.546875 12.441407 1.417969 5.285156.6875 10.804687-2.050781 15.542969l-65.175782 116.59375c-1.292968 2.238281-2.890625 4.121093-4.804687 5.6875-1.269531 1.035156-2.800781 1.539062-4.320313 1.539062zm0 0"/><path d="m61.332031 418.804688c-5.15625 0-10.304687-1.933594-14.269531-5.796876-3.917969-3.820312-6.113281-8.933593-6.179688-14.40625-.070312-5.46875 1.996094-10.632812 5.816407-14.554687l74.523437-78.578125c2.597656-2.734375 6.917969-2.855469 9.648438-.253906 2.738281 2.59375 2.851562 6.914062.257812 9.652344l-74.589844 78.648437c-2.695312 2.757813-2.640624 7.09375.054688 9.71875 2.691406 2.632813 7.019531 2.566406 9.65625-.121094l75.269531-79.367187c2.59375-2.730469 6.917969-2.851563 9.648438-.25 2.738281 2.59375 2.851562 6.914062.257812 9.652344l-75.339843 79.433593c-4.050782 4.144531-9.40625 6.222657-14.753907 6.222657zm0 0"/><path d="m158.578125 207.09375c-1.527344 0-3.066406-.507812-4.335937-1.554688-1.886719-1.554687-3.46875-3.425781-4.703126-5.558593l-65.277343-116.761719c-5.597657-9.695312-2.234375-22.246094 7.542969-27.902344 9.789062-5.644531 22.335937-2.285156 27.980468 7.503906l57.242188 102.390626c1.839844 3.296874.664062 7.453124-2.628906 9.292968-3.292969 1.839844-7.445313.667969-9.289063-2.625l-57.199219-102.3125c-1.832031-3.171875-6.023437-4.28125-9.28125-2.421875-3.257812 1.882813-4.375 6.066407-2.496094 9.328125l65.273438 116.757813c.367188.628906.890625 1.253906 1.507812 1.761719 2.914063 2.398437 3.332032 6.699218.933594 9.613281-1.347656 1.640625-3.300781 2.488281-5.269531 2.488281zm0 0"/><path d="m307.621094 416.425781c-1.117188 0-2.242188-.085937-3.382813-.277343-5.398437-.902344-10.121093-3.847657-13.300781-8.300782-3.175781-4.445312-4.433594-9.875-3.53125-15.265625l11.042969-66.28125-23.21875-10.320312c-3.445313-1.53125-5-5.566407-3.464844-9.011719 1.53125-3.449219 5.5625-5.007812 9.011719-3.46875l28.050781 12.46875c2.839844 1.265625 4.472656 4.292969 3.957031 7.359375l-11.910156 71.492187c-.300781 1.800782.117188 3.613282 1.179688 5.09375 1.054687 1.488282 2.632812 2.464844 4.433593 2.765626 3.761719.628906 7.242188-1.933594 7.851563-5.613282l13.652344-81.910156c.511718-3.074219-1.113282-6.101562-3.957032-7.359375l-42.042968-18.6875c-3.445313-1.53125-5-5.566406-3.464844-9.011719 1.53125-3.449218 5.566406-5 9.011718-3.46875l42.042969 18.6875c8.527344 3.792969 13.414063 12.875 11.878907 22.082032l-13.652344 81.917968c-1.660156 9.917969-10.148438 17.109375-20.1875 17.109375zm0 0"/><path d="m160.988281 343.960938c-1.71875 0-3.382812-.65625-4.648437-1.828126l-39.992188-37.191406c-1.398437-1.308594-2.1875-3.132812-2.175781-5.046875.015625-1.914062.828125-3.734375 2.246094-5.015625l40.710937-36.851562-6.507812-69.808594c-.03125-13.726562 10.625-24.378906 23.714844-24.378906h61.734374c13.09375 0 23.746094 10.652344 23.746094 23.746094 0 .234374-.015625.472656-.035156.707031l-6.304688 60.808593 35.9375 15.125c3.324219 1.398438 4.984376 5.140626 3.792969 8.546876l-15.882812 45.425781c-.628907 1.808593-1.992188 3.265625-3.753907 4.019531-1.757812.753906-3.753906.742188-5.503906-.054688l-59.996094-27.164062-42 46.699219c-1.226562 1.359375-2.945312 2.171875-4.773437 2.253906-.105469.007813-.207031.007813-.308594.007813zm-29.890625-43.953126 29.457032 27.398438 40.707031-45.253906c1.988281-2.207032 5.171875-2.867188 7.890625-1.652344l57.75 26.144531 11.300781-32.324219-34.6875-14.601562c-2.769531-1.167969-4.449219-4.007812-4.140625-7l6.785156-65.441406c-.167968-5.425782-4.625-9.785156-10.089844-9.785156h-61.734374c-5.566407 0-10.089844 4.527343-10.089844 10.09375l6.792968 72.570312c.199219 2.140625-.617187 4.253906-2.214843 5.695312zm0 0"/><path d="m341.734375 68.265625h-273.066406c-3.769531 0-6.824219-3.050781-6.824219-6.824219 0-3.773437 3.054688-6.828125 6.824219-6.828125h273.066406c3.773437 0 6.828125 3.054688 6.828125 6.828125 0 3.773438-3.054688 6.824219-6.828125 6.824219zm0 0"/><path d="m68.667969 122.878906h-20.476563c-3.773437 0-6.828125-3.050781-6.828125-6.824218v-109.226563c0-3.773437 3.054688-6.828125 6.828125-6.828125h20.476563c3.773437 0 6.828125 3.054688 6.828125 6.828125v109.226563c0 3.773437-3.054688 6.824218-6.828125 6.824218zm-13.652344-13.652344h6.828125v-95.574218h-6.828125zm0 0"/><path d="m48.191406 122.878906h-20.480468c-3.769532 0-6.828126-3.050781-6.828126-6.824218v-109.226563c0-3.773437 3.058594-6.828125 6.828126-6.828125h20.480468c3.769532 0 6.824219 3.054688 6.824219 6.828125v109.226563c0 3.773437-3.054687 6.824218-6.824219 6.824218zm-13.65625-13.652344h6.828125v-95.574218h-6.828125zm0 0"/><path d="m382.695312 122.878906h-20.480468c-3.769532 0-6.824219-3.050781-6.824219-6.824218v-109.226563c0-3.773437 3.054687-6.828125 6.824219-6.828125h20.480468c3.769532 0 6.828126 3.054688 6.828126 6.828125v109.226563c0 3.773437-3.058594 6.824218-6.828126 6.824218zm-13.652343-13.652344h6.828125v-95.574218h-6.828125zm0 0"/><path d="m362.214844 122.878906h-20.480469c-3.769531 0-6.824219-3.050781-6.824219-6.824218v-109.226563c0-3.773437 3.054688-6.828125 6.824219-6.828125h20.480469c3.769531 0 6.828125 3.054688 6.828125 6.828125v109.226563c0 3.773437-3.058594 6.824218-6.828125 6.824218zm-13.652344-13.652344h6.828125v-95.574218h-6.828125zm0 0"/><path d="m27.710938 68.265625h-20.480469c-3.769531 0-6.828125-3.050781-6.828125-6.824219 0-3.773437 3.058594-6.828125 6.828125-6.828125h20.480469c3.769531 0 6.824218 3.054688 6.824218 6.828125 0 3.773438-3.054687 6.824219-6.824218 6.824219zm0 0"/><path d="m403.175781 68.265625h-20.480469c-3.769531 0-6.824218-3.050781-6.824218-6.824219 0-3.773437 3.054687-6.828125 6.824218-6.828125h20.480469c3.769531 0 6.828125 3.054688 6.828125 6.828125 0 3.773438-3.058594 6.824219-6.828125 6.824219zm0 0"/></svg>