<svg id="Capa_1" enable-background="new 0 0 512 512" height="512" viewBox="0 0 512 512" width="512" xmlns="http://www.w3.org/2000/svg"><g><path d="m511.992 511.998s0-.002-.001-.007 0 0 0-.001 0-.002-.001-.004c-.014-.067-.023-.108-.029-.133 0 .001 0 .002.001.003 0-.002-.001-.004-.001-.006-.006-.027-.006-.03-.004-.017-.302-1.397-2.879-13.326-20.484-94.815-6.855-27.423-28.674-47.839-55.466-53.462v-227.556h-30v227.557c-10.823 2.271-20.831 6.958-29.372 13.545-11.225-15.421-28.097-26.221-47.5-29.67l-73.128-13v-20.233c4.347-2.994 8.43-6.308 12.228-9.901 16.072 10.404 34.512 16.05 53.507 12.671 19.147-3.408 36.396-15.188 51.265-35.014l8.787-11.716-10.881-8.575c-2.408-2.947-9.94-15.679-9.906-35.664v-69.671c0-36.166-23.068-70.687-53.521-90.514l17.614-35.815h-24.093c-17.204 0-30.607-6.292-46.125-13.578-16.396-7.697-34.979-16.422-58.875-16.422s-42.479 8.725-58.875 16.422c-15.518 7.286-28.921 13.578-46.125 13.578h-24.092l15.293 31.096c-34.16 27.928-52.613 71.338-51.021 121.152l-.179 43.459c-.756 21.07-6.886 33.184-9.108 35.328l-11.891 8.922 8.998 11.997c14.87 19.826 32.118 31.606 51.265 35.014 19.081 3.396 37.613-2.319 53.729-12.81 3.733 3.546 7.74 6.824 12.006 9.79v21.019l-76.27 16.949c-34.61 7.691-59.73 38.482-59.73 73.214v86.86c17.58 0 494.075.01 511.985.01 0-.001 0-.001 0-.002zm-90.985-119.998c18.801 0 35.212 12.221 40.714 30h-81.43c5.503-17.779 21.915-30 40.716-30zm-271.125-348.422c15.518-7.286 28.921-13.578 46.125-13.578s30.606 6.292 46.125 13.578c10.788 5.064 22.524 10.574 36.096 13.75l-16.56 33.672h-131.322l-16.56-33.671c13.572-3.177 25.308-8.686 36.096-13.751zm-44.49 236.848c-10.454 6.315-20.474 8.679-29.863 7.007-8.785-1.564-17.288-6.599-25.369-15.007 6.221-11.436 10.223-27.827 10.838-45.917l.009-44.979c-1.26-37.588 11.42-70.415 34.911-92.556l15.75 32.026h168.678l13.776-28.011c22.346 15.781 36.885 40.257 36.885 63.339v69.646c-.034 19.965 5.488 35.762 11.151 46.133-8.172 8.599-16.777 13.742-25.673 15.325-9.313 1.659-19.237-.646-29.589-6.837 9.188-15.945 14.11-34.401 14.11-53.641v-30c0-24.813-20.006-44.955-44.819-44.955h-4.526l-3.771 2.504c-.413.276-42.737 27.497-141.883 27.497h-15v44.955c0 19.157 5.253 37.556 14.385 53.471zm15.615-53.471v-15.205c80.454-2.217 124.538-21.875 138.539-29.417 6.66 1.529 11.461 7.504 11.461 14.621v30c0 51.74-43.175 68.473-45 70.195v46.309l-30 60-30-60v-46.467c-1.808-1.72-45-18.546-45-70.036zm-15 145.411 36.821-8.182 28.909 57.816h-65.729v-49.634zm-30 109.634h-46v-56.87c0-20.788 15.24-39.262 36.238-43.929l9.762-2.169zm210 0h-180v-30h180zm0-60h-65.729l29.135-58.271 36.594 6.506zm64.535-4.981-13.193 64.981h-21.342v-106.431l7.876 1.4c14.27 2.537 26.259 11.695 32.52 24.467-2.497 4.873-4.487 10.083-5.861 15.583zm17.414 64.981 6.085-30h94.303l6.479 30zm144.026 29.952c-.003-.014-.007-.031-.011-.052.004.018.008.037.011.052z"/></g></svg>