<svg id="Repair_Service" height="512" viewBox="0 0 64 64" width="512" xmlns="http://www.w3.org/2000/svg" data-name="Repair Service"><path d="m32.293 35.293-5.657 5.657a1 1 0 0 1 -.707.293h-.9l-2.744 3.841 1.631 1.631 3.842-2.744v-.9a1 1 0 0 1 .293-.707l5.656-5.657z"/><path d="m40.071 26.1-7.071 7.071 2.828 2.829 7.072-7.071a2 2 0 0 0 0-2.828 2.047 2.047 0 0 0 -2.829-.001z"/><path d="m36.535 38.121a1 1 0 0 1 -1.414 0l-2 2 5.825 5.834a2.055 2.055 0 0 0 2.841-.007 2.012 2.012 0 0 0 -.006-2.83l-5.122-5.122z"/><path d="m52 4h-5v3.62l5 1.9z"/><path d="m30.879 33.879a1 1 0 0 1 0-1.414l.261-.261a4.947 4.947 0 0 1 -.63-2.453 4.959 4.959 0 0 0 -1.457-3.6 5.017 5.017 0 0 0 -4.243-1.4l2.826 2.82a1 1 0 0 1 .242 1.025l-.71 2.121a1 1 0 0 1 -.631.63l-2.12.71a1 1 0 0 1 -1.024-.241l-2.827-2.826a5.03 5.03 0 0 0 .883 3.632 4.916 4.916 0 0 0 4.076 2.067 5.081 5.081 0 0 1 3.329 1.211z"/><path d="m5 58h54v2h-54z"/><path d="m32 10.07-24 9.1v36.83h48v-36.83zm18 39.93a3 3 0 0 1 -3 3h-30a3 3 0 0 1 -3-3v-28a3 3 0 0 1 3-3h30a3 3 0 0 1 3 3z"/><path d="m4 14.69v3.86l27.65-10.49a1.051 1.051 0 0 1 .7 0l27.65 10.49v-3.86l-28-10.62z"/><path d="m47 21h-30a1 1 0 0 0 -1 1v28a1 1 0 0 0 1 1h30a1 1 0 0 0 1-1v-28a1 1 0 0 0 -1-1zm-3.8 20.7a4.005 4.005 0 0 1 -2.84 6.84 3.971 3.971 0 0 1 -2.827-1.173l-5.824-5.833-1.951 1.951v1a1 1 0 0 1 -.419.814l-4.95 3.536a1 1 0 0 1 -1.288-.107l-2.829-2.828a1 1 0 0 1 -.106-1.288l3.534-4.95a1 1 0 0 1 .814-.419h1l1.922-1.923a3.242 3.242 0 0 0 -1.945-.64 6.968 6.968 0 0 1 -5.658-2.888 7.076 7.076 0 0 1 -.636-7.124 1 1 0 0 1 1.609-.275l3.562 3.562 1.062-.355.354-1.06-3.56-3.552a1 1 0 0 1 .273-1.61 7.017 7.017 0 0 1 7.968 1.353 6.938 6.938 0 0 1 2.045 5.042 2.9 2.9 0 0 0 .146.915l6-6a4 4 0 1 1 5.656 5.656l-6.238 6.238z"/></svg>