<?xml version="1.0" encoding="UTF-8"?>
<svg xmlns="http://www.w3.org/2000/svg" id="Repair_Service" data-name="Repair Service" viewBox="0 0 64 64" width="512" height="512"><path d="M14,22V50a3,3,0,0,0,3,3H47a3,3,0,0,0,3-3V22a3,3,0,0,0-3-3H17A3,3,0,0,0,14,22Zm34,0V50a1,1,0,0,1-1,1H17a1,1,0,0,1-1-1V22a1,1,0,0,1,1-1H47A1,1,0,0,1,48,22Z"/><path d="M25.492,36.68a3.242,3.242,0,0,1,1.945.64l-1.922,1.923h-1a1,1,0,0,0-.814.419l-3.535,4.949a1,1,0,0,0,.106,1.288L23.1,48.728a1,1,0,0,0,1.288.107l4.95-3.536a1,1,0,0,0,.419-.814v-1l1.951-1.951,5.824,5.833A3.971,3.971,0,0,0,40.36,48.54,4.005,4.005,0,0,0,43.2,41.7l-5.122-5.122,6.238-6.238a4,4,0,1,0-5.656-5.656l-6,6a2.9,2.9,0,0,1-.146-.915,6.938,6.938,0,0,0-2.045-5.042A7.017,7.017,0,0,0,22.5,23.378a1,1,0,0,0-.273,1.61l3.56,3.552L25.43,29.6l-1.061.355-3.562-3.562a1,1,0,0,0-1.609.275,7.076,7.076,0,0,0,.636,7.124A6.968,6.968,0,0,0,25.492,36.68Zm2.559,5.684a1,1,0,0,0-.293.707v.9l-3.842,2.744-1.631-1.631,2.744-3.841h.9a1,1,0,0,0,.707-.293l5.657-5.657,1.414,1.414Zm13.732.753a2.012,2.012,0,0,1,.006,2.83,2.055,2.055,0,0,1-2.841.007L33.123,40.12l2-2a1,1,0,0,0,1.414,0l.126-.126ZM40.071,26.1a2.047,2.047,0,0,1,2.828,0,2,2,0,0,1,0,2.828L35.828,36,33,33.171Zm-19.5,2.88,2.827,2.826a1,1,0,0,0,1.024.241l2.12-.71a1,1,0,0,0,.631-.63l.71-2.121a1,1,0,0,0-.242-1.025l-2.826-2.82a5.017,5.017,0,0,1,4.243,1.4,4.959,4.959,0,0,1,1.457,3.6,4.947,4.947,0,0,0,.63,2.453l-.261.261a1,1,0,0,0,0,1.414h0L28.854,35.9a5.081,5.081,0,0,0-3.329-1.224,4.916,4.916,0,0,1-4.076-2.067A5.03,5.03,0,0,1,20.566,28.981Z"/><path d="M61.35,13.06,54,10.28V3a1,1,0,0,0-1-1H46a1,1,0,0,0-1,1V6.86L32.35,2.06a1.051,1.051,0,0,0-.7,0l-29,11A1.007,1.007,0,0,0,2,14v6a.983.983,0,0,0,.43.82,1.009,1.009,0,0,0,.92.12L6,19.93V56H4a1,1,0,0,0-1,1v4a1,1,0,0,0,1,1H60a1,1,0,0,0,1-1V57a1,1,0,0,0-1-1H58V19.93l2.65,1.01A1.03,1.03,0,0,0,61,21a1,1,0,0,0,1-1V14A1.007,1.007,0,0,0,61.35,13.06ZM47,4h5V9.52l-5-1.9ZM59,58v2H5V58ZM8,56V19.17l24-9.1,24,9.1V56ZM60,18.55,32.35,8.06a1.051,1.051,0,0,0-.7,0L4,18.55V14.69L32,4.07,60,14.69Z"/></svg>
