<svg id="Capa_1" enable-background="new 0 0 504.662 504.662" height="512" viewBox="0 0 504.662 504.662" width="512" xmlns="http://www.w3.org/2000/svg"><g><path d="m320.675 349.947c-68.304 62.125-149.928 96.8-206.375 114.95-35.655 11.465-66.027 17.961-85.321 21.405l62.697-62.697c2.929-2.929 2.929-7.678 0-10.606-2.929-2.929-7.678-2.929-10.606 0l-62.722 62.721c3.418-19.168 9.86-49.306 21.232-84.781 18.098-56.458 52.694-138.113 114.729-206.504 2.783-3.068 2.552-7.812-.516-10.594-3.069-2.783-7.812-2.551-10.594.516-63.839 70.38-99.352 154.135-117.903 212.003-20.088 62.665-25.053 108.109-25.254 110.013-.238 2.252.554 4.492 2.155 6.093 1.414 1.414 3.325 2.197 5.303 2.197.263 0 .526-.014.79-.042 1.908-.202 47.454-5.178 110.228-25.323 57.969-18.603 141.849-54.22 212.251-118.254 3.064-2.787 3.289-7.53.502-10.595-2.787-3.064-7.531-3.289-10.596-.502z"/><path d="m182.983 153.038c1.771 0 3.549-.624 4.977-1.892 43.114-38.283 95.64-70.115 156.121-94.612 3.839-1.555 5.691-5.928 4.136-9.767s-5.927-5.691-9.767-4.136c-62.071 25.142-116.054 57.878-160.45 97.299-3.097 2.75-3.378 7.491-.628 10.588 1.482 1.669 3.541 2.52 5.611 2.52z"/><path d="m502.466 2.197c-1.602-1.602-3.836-2.395-6.093-2.155-2.232.236-55.475 6.068-126.145 30.644-3.913 1.361-5.981 5.635-4.621 9.547 1.361 3.913 5.635 5.979 9.547 4.621 42.216-14.681 78.584-22.571 100.555-26.495l-184.45 184.45c-22.572-19.839-48.151-26.09-72.7-17.559-3.913 1.36-5.982 5.634-4.623 9.546 1.36 3.913 5.637 5.981 9.546 4.623 26.658-9.265 48.734 5.234 62.581 19.058.022.023.041.048.064.07.022.022.046.041.069.062 13.449 13.475 27.73 34.959 19.592 60.923-1.239 3.953.961 8.161 4.914 9.4.747.234 1.502.345 2.245.345 3.191 0 6.15-2.053 7.155-5.259 7.481-23.868.995-48.701-18.237-70.602l184.444-184.444c-3.424 19.198-9.879 49.384-21.278 84.912-18.137 56.531-52.809 138.277-114.987 206.685-2.786 3.065-2.56 7.809.505 10.594 1.437 1.306 3.242 1.95 5.042 1.95 2.04 0 4.072-.827 5.552-2.456 63.987-70.397 99.579-154.247 118.17-212.191 20.132-62.747 25.106-108.269 25.308-110.176.238-2.252-.554-4.491-2.155-6.093z"/><path d="m193.14 209.104c-2.929-2.929-7.678-2.929-10.606 0-19.39 19.39-31.974 43.38-35.436 67.552-3.161 22.082 1.565 42.014 13.341 56.973l-55.369 55.369c-2.929 2.929-2.929 7.678 0 10.606 1.464 1.465 3.384 2.197 5.303 2.197s3.839-.732 5.303-2.197l55.378-55.377c11.925 9.381 26.999 14.295 43.813 14.295 4.275 0 8.665-.317 13.139-.958 24.172-3.461 48.163-16.045 67.552-35.435 2.929-2.929 2.929-7.678 0-10.606-2.929-2.929-7.678-2.929-10.606 0-5.238 5.238-10.801 9.849-16.551 13.837l-89.106-89.106c4.025-5.797 8.652-11.351 13.845-16.543 2.929-2.929 2.929-7.678 0-10.607zm61.971 124.179c-29.113 14.722-60.469 13.972-79.087-4.645-11.968-11.968-16.967-29.673-14.078-49.856 1.415-9.883 4.642-19.76 9.426-29.237z"/><path d="m427.919 376.151c-21.367-9.329-37.439-11.575-47.946-6.733l-244.777-244.778c11.878-26.56-23.814-82.478-38.091-97.686-18.756-19.979-34.752-28.592-48.898-26.328-10.973 1.755-19.971 10.004-26.744 24.517-13.701 29.36-11.738 55.591 5.385 71.97 10.887 10.414 31.405 23.326 49.896 31.399 14.071 6.144 25.847 9.217 35.25 9.217 4.843 0 9.043-.832 12.616-2.463l244.828 244.829c-11.784 26.588 23.857 82.42 38.121 97.614 16.81 17.906 31.4 26.681 44.432 26.681 1.508 0 2.998-.118 4.466-.353 10.973-1.755 19.971-10.004 26.744-24.518 13.701-29.359 11.738-55.591-5.385-71.969-10.889-10.414-31.407-23.326-49.897-31.399zm-345.173-261.386c-19.015-8.302-37.297-20.617-45.53-28.492-5.764-5.513-17.513-21.888-2.16-54.786 4.54-9.729 9.762-15.128 15.521-16.049.624-.1 1.302-.157 2.038-.157 6.345 0 16.944 4.247 33.555 21.94 7.894 8.409 20.21 26.791 28.478 45.653 9.672 22.068 9.099 33.951 5.663 37.44-.008.008-.016.014-.024.022-.009.009-.016.018-.024.027-3.504 3.453-15.414 4.053-37.517-5.598zm386.861 358.411c-4.54 9.728-9.761 15.128-15.52 16.049-6.01.963-17.058-2.04-35.593-21.783-7.894-8.409-20.21-26.791-28.478-45.653-9.696-22.122-9.097-34.009-5.639-37.467 1.39-1.39 4.131-2.323 8.339-2.323 6.309 0 15.913 2.097 29.201 7.899 19.014 8.302 37.297 20.617 45.529 28.492 5.765 5.514 17.513 21.889 2.161 54.786z"/></g></svg>