<svg height="512pt" viewBox="0 0 512.0015 512" width="512pt" xmlns="http://www.w3.org/2000/svg"><path d="m190.359375 427.171875c-14.199219 0-25.75 11.550781-25.75 25.75 0 4.183594 3.390625 7.574219 7.574219 7.574219 4.179687 0 7.574218-3.390625 7.574218-7.574219 0-5.847656 4.753907-10.601563 10.601563-10.601563s10.605469 4.753907 10.605469 10.601563c0 4.183594 3.390625 7.574219 7.574218 7.574219 4.183594 0 7.574219-3.390625 7.574219-7.574219-.003906-14.195313-11.554687-25.75-25.753906-25.75zm0 0"/><path d="m307.503906 446.359375c-14.199218 0-25.753906 11.550781-25.753906 25.75 0 4.183594 3.390625 7.574219 7.574219 7.574219 4.183593 0 7.574219-3.390625 7.574219-7.574219 0-5.84375 4.757812-10.601563 10.605468-10.601563s10.601563 4.757813 10.601563 10.601563c0 4.183594 3.390625 7.574219 7.574219 7.574219 4.183593 0 7.574218-3.390625 7.574218-7.574219 0-14.199219-11.554687-25.75-25.75-25.75zm0 0"/><path d="m418.585938 478.167969c0 3.347656-2.710938 6.0625-6.058594 6.0625-3.34375 0-6.058594-2.714844-6.058594-6.0625 0-3.34375 2.714844-6.058594 6.058594-6.058594 3.347656 0 6.058594 2.714844 6.058594 6.058594zm0 0"/><path d="m123.707031 462.011719c0 3.347656-2.710937 6.058593-6.058593 6.058593-3.347657 0-6.058594-2.710937-6.058594-6.058593 0-3.347657 2.710937-6.058594 6.058594-6.058594 3.347656 0 6.058593 2.710937 6.058593 6.058594zm0 0"/><path d="m462.011719 454.4375c-3.871094 0-7.6875.441406-11.410157 1.308594-8.097656-11.058594-18.632812-19.734375-30.621093-25.507813l37.648437-23.511719c18.128906-11.324218 30.65625-29.894531 34.367188-50.945312l16.132812-91.488281c.347656-1.976563-.101562-4.011719-1.253906-5.65625-1.152344-1.648438-2.910156-2.769531-4.890625-3.117188l-13.691406-2.414062c-4.113281-.722657-8.046875 2.023437-8.773438 6.144531-.726562 4.117188 2.023438 8.046875 6.144531 8.773438l6.234376 1.097656-14.820313 84.03125c-2.964844 16.828125-12.980469 31.671875-27.472656 40.726562l-40.816407 25.488282c-3.347656 2.09375-7.191406 3.421874-11.117187 3.851562-4.390625-.71875-8.871094-1.09375-13.417969-1.09375-2.007812 0-4.023437.074219-6.039062.222656-6.332032-20.398437-23.9375-35.25-45.113282-38.09375l-9.894531-12.660156c-6.960937-8.90625-11.1875-19.355469-12.425781-30.324219 7.511719 4.355469 16.984375 7.976563 27.722656 7.976563h.003906c6.804688 0 13.527344-1.46875 19.984376-4.367188 34.375-15.433594 52.398437-69.09375 53.152343-71.371094 1.265625-3.847656-.714843-8.011718-4.5-9.453124-1.136719-.429688-28.121093-10.578126-55.652343-10.578126-10.894532 0-20.476563 1.632813-28.605469 4.8125l3.246093-18.394531 60.289063 10.632813h.007813l45.167968 7.964844h.003906l19.769532 3.484374c4.132812.730469 8.050781-2.023437 8.777344-6.144531.726562-4.117187-2.027344-8.046875-6.144532-8.773437l-12.316406-2.171875 9.601562-54.441407 20.363282-115.503906 23.492187 4.140625c.449219.078125.890625.117188 1.324219.117188 3.609375 0 6.804688-2.585938 7.453125-6.257813l7.964844-45.171875c.726562-4.117187-2.027344-8.046875-6.144531-8.773437l-107.070313-18.878906c-1.984375-.351563-4.015625.101562-5.660156 1.253906-1.648438 1.152344-2.769531 2.910156-3.117188 4.890625l-7.960937 45.167969c-.730469 4.121093 2.023437 8.050781 6.140625 8.773437l23.492187 4.144531-4 22.703125c-.726562 4.117188 2.023438 8.046875 6.144532 8.773438 4.113281.722656 8.046874-2.023438 8.769531-6.144531l4.003906-22.703126 30.253906 5.335938-19.050781 108.042969-30.253906-5.332031 8.820312-50.011719c.726563-4.121094-2.027344-8.050781-6.144531-8.773438-4.121094-.726562-8.046875 2.023438-8.773437 6.144531l-10.132813 57.46875-9.601563 54.441407-60.296874-10.632813c-4.125-.722656-8.046876 2.023438-8.773438 6.144532l-6.972656 39.542968c-15.425782 15.214844-16.082032 36.933594-15.320313 47.496094-11.085937 5.09375-20.015625 12.257812-26.660156 18.878906v-86.230468c15.796875-5.671876 38.375-20.890626 38.375-49.035157 0-36.75-38.738281-79.09375-40.386719-80.878906-1.433594-1.550781-3.453125-2.433594-5.5625-2.433594-2.113281 0-4.128906.882813-5.5625 2.433594-1.652344 1.785156-40.386718 44.128906-40.386718 80.878906 0 28.144531 22.574218 43.363281 38.375 49.035157v71.082031c-6.648438-6.621094-15.578126-13.785157-26.660157-18.878907.929688-12.917968-.253906-42.527343-28-56.511718-9.023437-4.546875-20.214843-6.855469-33.257812-6.855469-27.53125 0-54.515625 10.148437-55.652344 10.578125-3.785156 1.441406-5.765625 5.605469-4.5 9.453125.75 2.277344 18.777344 55.941406 53.152344 71.371094 6.457031 2.898437 13.183593 4.371093 19.988281 4.371093 19.617188 0 35.019531-12.09375 41.929688-18.648437 17.976562 8.273437 29.546874 23.609375 33 28.644531v50.371094c-7.332032 1.207031-14.289063 4.136719-20.269532 8.535156-10.367187-12.191406-25.457031-19.253906-41.835937-19.253906-24.410157 0-45.476563 15.855469-52.535157 38.601562-2.015624-.152343-4.03125-.226562-6.035156-.226562-26.457031 0-50.855468 12.46875-66.351562 33.625-3.722656-.871094-7.539063-1.308594-11.410156-1.308594-27.566407-.003906-49.992188 22.421875-49.992188 49.984375 0 4.183594 3.390625 7.574219 7.574219 7.574219h496.851562c4.183594 0 7.574219-3.390625 7.574219-7.574219 0-27.5625-22.425781-49.988281-49.988281-49.988281zm-58.515625-438.085938 92.15625 16.246094-5.335938 30.253906-23.492187-4.144531-45.167969-7.964843c-.003906 0-.007812 0-.011719 0l-23.480469-4.140626zm1.304687 173.589844 30.253907 5.335938-8.285157 46.980468-30.253906-5.332031zm-245.089843 125.96875c-21.746094-9.761718-36.546876-41.078125-42.296876-55.230468 9.292969-2.84375 26.300782-7.203126 43.09375-7.203126 10.65625 0 19.550782 1.761719 26.441407 5.234376 16.5 8.316406 19.695312 25.199218 19.886719 36.148437l-36.4375-17.417969c-3.773438-1.800781-8.296876-.207031-10.101563 3.570313-1.804687 3.773437-.207031 8.296875 3.566406 10.097656l36.4375 17.417969c-6.195312 4.835937-15.75 10.421875-26.804687 10.421875-4.652344 0-9.289063-1.019531-13.785156-3.039063zm191.78125-47.285156c16.742187 0 33.789062 4.367188 43.097656 7.207031-5.734375 14.15625-20.5 45.4375-42.300782 55.226563-4.496093 2.015625-9.132812 3.039062-13.78125 3.039062h-.003906c-10.96875 0-20.542968-5.601562-26.769531-10.441406l36.398437-17.398438c3.773438-1.804687 5.371094-6.324218 3.566407-10.101562-1.804688-3.773438-6.320313-5.371094-10.097657-3.566406l-36.386718 17.390625c.234375-10.960938 3.464844-27.875 19.835937-36.125 6.886719-3.46875 15.785157-5.230469 26.441407-5.230469zm-56.15625 62.570312c-.789063 17.953126 4.757812 35.425782 15.933593 49.722657l3.121094 3.988281c-11.921875 2.460938-22.621094 8.769531-30.550781 18.09375-5.976563-4.394531-12.9375-7.328125-20.265625-8.53125v-35.226562c3.367187-4.914063 14.496093-19.652344 31.761719-28.046876zm-70.136719-130.738281c0-23.316406 20.617187-51.550781 30.804687-64.074219 10.191406 12.511719 30.796875 40.707032 30.796875 64.074219 0 18.316407-13.589843 28.015625-23.226562 32.589844v-29.558594c0-4.183593-3.390625-7.574219-7.574219-7.574219s-7.574219 3.390626-7.574219 7.574219v29.507813c-9.621093-4.617188-23.226562-14.363282-23.226562-32.539063zm-209.222657 296.394531c3.46875-15.578124 17.402344-27.265624 34.011719-27.265624 4.109375 0 8.132813.707031 11.957031 2.105468 3.351563 1.222656 7.097657-.054687 9-3.070312 12.402344-19.628906 33.636719-31.351563 56.800782-31.351563 3.523437 0 7.101562.285157 10.632812.847657 4.085938.648437 7.945313-2.105469 8.652344-6.1875 3.3125-19.140626 19.835938-33.03125 39.289062-33.03125 14.074219 0 26.839844 7.195312 34.144532 19.25 1.234375 2.042968 3.359375 3.378906 5.734375 3.613281 2.371093.234375 4.71875-.664063 6.328125-2.421875 6.019531-6.574219 14.574218-10.34375 23.472656-10.34375s17.457031 3.769531 23.472656 10.34375c1.609375 1.757812 3.957032 2.65625 6.328125 2.421875 2.375-.234375 4.5-1.570313 5.734375-3.613281 7.304688-12.054688 20.070313-19.25 34.144532-19.25 19.453124 0 35.976562 13.890624 39.289062 33.03125.707031 4.082031 4.558594 6.835937 8.652344 6.1875 3.53125-.5625 7.109375-.847657 10.632812-.847657 23.164063 0 44.394532 11.722657 56.800782 31.351563 1.902343 3.015625 5.652343 4.292968 9 3.070312 3.824218-1.398437 7.84375-2.105468 11.957031-2.105468 16.609375 0 30.542969 11.6875 34.011719 27.265624zm0 0"/></svg>