<?xml version="1.0"?>
<svg xmlns="http://www.w3.org/2000/svg" id="Outline" viewBox="0 0 512 512" width="512" height="512"><path d="M248,432H216a8,8,0,0,0-8,8v48a8,8,0,0,0,8,8h32a8,8,0,0,0,8-8V440A8,8,0,0,0,248,432Zm-8,48H224V448h16Z"/><path d="M471.982,433.008Q472,432.5,472,432a32.036,32.036,0,0,0-32-32,31.543,31.543,0,0,0-11.3,2.094A31.992,31.992,0,0,0,400,384a31.639,31.639,0,0,0-16,4.365A31.639,31.639,0,0,0,368,384a31.992,31.992,0,0,0-28.7,18.094,31.508,31.508,0,0,0-3.3-1.053V287.792a67.979,67.979,0,1,0,72.423-113.561A63.351,63.351,0,0,0,416,144a64.39,64.39,0,0,0-34.15-56.608,56,56,0,1,0-107.7,0A64.39,64.39,0,0,0,240,144a63.359,63.359,0,0,0,7.575,30.229,67.965,67.965,0,0,0-15.59,9.978,67.713,67.713,0,0,0-15.562-9.976A63.351,63.351,0,0,0,224,144a64.39,64.39,0,0,0-34.15-56.608,56,56,0,1,0-107.7,0A64.39,64.39,0,0,0,48,144a63.354,63.354,0,0,0,7.577,30.231A67.985,67.985,0,1,0,128,287.792V384H40a8,8,0,0,0-8,8v56H24a8,8,0,0,0,0,16h8v24a8,8,0,0,0,16,0V464h80v24a8,8,0,0,0,16,0V464h16v24a8,8,0,0,0,16,0V464h8a8,8,0,0,0,0-16h-8V392a8,8,0,0,0-8-8H144V287.792a67.817,67.817,0,0,0,87.983.008A67.865,67.865,0,0,0,320,287.793v113.22A32.057,32.057,0,0,0,296,432q0,.5.018,1.008A32,32,0,0,0,304,496H464a32,32,0,0,0,7.982-62.992ZM48,448V432h80v16Zm96-16h16v16H144Zm16-16H48V400H160Zm28-128a52.186,52.186,0,0,1-44-24.314V187.314l29.657-29.657a8,8,0,0,0-11.314-11.314L144,164.686V136a8,8,0,0,0-16,0v84.686l-18.343-18.343a8,8,0,0,0-11.314,11.314L128,243.314v20.372a51.993,51.993,0,1,1-58.118-77.729,8,8,0,0,0,4.157-12.6A47.514,47.514,0,0,1,64,144,48.255,48.255,0,0,1,95.024,99.1a8,8,0,0,0,4.469-10.756,40,40,0,1,1,73.014,0A8,8,0,0,0,176.976,99.1,48.255,48.255,0,0,1,208,144a47.514,47.514,0,0,1-10.039,29.356,8,8,0,0,0,4.157,12.6A52,52,0,0,1,188,288Zm88,0a52.179,52.179,0,0,1-33.107-11.93,67.729,67.729,0,0,0-.027-80.128,51.851,51.851,0,0,1,19.016-9.985,8,8,0,0,0,4.157-12.6A47.514,47.514,0,0,1,256,144a48.255,48.255,0,0,1,31.024-44.9,8,8,0,0,0,4.469-10.756,40,40,0,1,1,73.014,0A8,8,0,0,0,368.976,99.1,48.255,48.255,0,0,1,400,144a47.514,47.514,0,0,1-10.039,29.356,8,8,0,0,0,4.157,12.6A52,52,0,1,1,336,263.686V187.314l29.657-29.657a8,8,0,0,0-11.314-11.314L336,164.686V136a8,8,0,0,0-16,0h0v84.686l-18.343-18.343a8,8,0,0,0-11.314,11.314L320,243.314v20.372A52.186,52.186,0,0,1,276,288ZM464,480H304a16,16,0,0,1-.24-32l.019,0c.409.057.818.106,1.235.133a8,8,0,0,0,8.023-10.716A15.727,15.727,0,0,1,312,432a15.918,15.918,0,0,1,26.758-11.739,8,8,0,0,0,13.388-5.348A15.994,15.994,0,0,1,368,400a15.769,15.769,0,0,1,10.646,4.173,8,8,0,0,0,10.708,0A15.769,15.769,0,0,1,400,400a15.994,15.994,0,0,1,15.854,14.913,8,8,0,0,0,13.388,5.348A15.918,15.918,0,0,1,456,432a15.727,15.727,0,0,1-1.037,5.421,8,8,0,0,0,8.023,10.716c.417-.027.826-.076,1.235-.133l.019,0a16,16,0,0,1-.24,32Z"/><circle cx="384" cy="432" r="8"/><circle cx="432" cy="448" r="8"/><circle cx="336" cy="456" r="8"/></svg>
