<?xml version="1.0" encoding="iso-8859-1"?>
<!-- Generator: Adobe Illustrator 19.0.0, SVG Export Plug-In . SVG Version: 6.00 Build 0)  -->
<svg version="1.1" id="Capa_1" xmlns="http://www.w3.org/2000/svg" xmlns:xlink="http://www.w3.org/1999/xlink" x="0px" y="0px"
	 viewBox="0 0 480 480" style="enable-background:new 0 0 480 480;" xml:space="preserve">
<g>
	<g>
		<path d="M472,464V48c-0.026-26.499-21.501-47.974-48-48H56C29.501,0.026,8.026,21.501,8,48v416c-4.418,0-8,3.582-8,8s3.582,8,8,8
			h48c4.418,0,8-3.582,8-8s-3.582-8-8-8V56c0-4.418,3.582-8,8-8h32v328h-8c-4.418,0-8,3.582-8,8v32c0,4.418,3.582,8,8,8h128
			c4.418,0,8-3.582,8-8v-32c0-4.418-3.582-8-8-8h-8V48h64v248h-8c-4.418,0-8,3.582-8,8v32c0,4.418,3.582,8,8,8h128
			c4.418,0,8-3.582,8-8v-32c0-4.418-3.582-8-8-8h-8V48h32c4.418,0,8,3.582,8,8v408c-4.418,0-8,3.582-8,8s3.582,8,8,8h48
			c4.418,0,8-3.582,8-8S476.418,464,472,464z M208,408H96v-16h112V408z M112,376V48h80v328H112z M384,328H272v-16h112V328z M288,296
			V48h80v248H288z M456,464h-16V56c0-13.255-10.745-24-24-24H64c-13.255,0-24,10.745-24,24v408H24V48c0-17.673,14.327-32,32-32h368
			c17.673,0,32,14.327,32,32V464z"/>
	</g>
</g>
<g>
</g>
<g>
</g>
<g>
</g>
<g>
</g>
<g>
</g>
<g>
</g>
<g>
</g>
<g>
</g>
<g>
</g>
<g>
</g>
<g>
</g>
<g>
</g>
<g>
</g>
<g>
</g>
<g>
</g>
</svg>
