<?xml version="1.0" encoding="UTF-8"?>
<svg xmlns="http://www.w3.org/2000/svg" xmlns:xlink="http://www.w3.org/1999/xlink" width="512" height="512" viewBox="0 0 60 46" version="1.1"><!-- Generator: Sketch 51.3 (57544) - http://www.bohemiancoding.com/sketch --><title>027 - Utilities</title><desc>Created with Sketch.</desc><defs/><g id="Page-1" stroke="none" stroke-width="1" fill="none" fill-rule="evenodd"><g id="027---Utilities" transform="translate(0.000000, -1.000000)" fill="#000000" fill-rule="nonzero"><path d="M36.636,8.146 C35.8629676,6.8599281 34.7441094,5.81695404 33.407,5.136 C33.1312591,5.02155846 32.8188072,5.03630303 32.5550685,5.17620253 C32.2913299,5.31610204 32.1038919,5.56652283 32.044,5.859 C31.927,6.43 31.867,7 31.81,7.551 L31.786,7.765 C29.9556936,4.45917374 26.8708626,2.03002249 23.228,1.026 C22.7483719,0.912331977 22.2574515,1.1651133 22.0713817,1.62155781 C21.885312,2.07800231 22.0595967,2.6019547 22.482,2.856 C24.143,3.856 24.912,6.095 25.266,7.795 C25.4935704,8.72412594 25.4676699,9.69729422 25.191,10.613 C24.7389731,11.5179685 24.0226775,12.264255 23.137,12.753 C21.1575387,14.0959069 19.7493111,16.1280329 19.187,18.453 C18.6051113,21.1794232 19.4092672,24.0171798 21.335,26.033 C23.1728433,27.9257388 25.6968022,28.9966185 28.335,29.003 C33.204,29.003 37.262,26.149 38.435,21.897 L38.53,21.532 C39.1002489,19.217332 39.2110058,16.8132956 38.856,14.456 C38.6035219,12.2116604 37.8444153,10.0540194 36.636,8.146 Z M25.736,25.746 C25.130672,24.9744334 24.8823101,23.9817132 25.053,23.016 C25.3043844,22.0030741 25.8921039,21.1054534 26.72,20.47 C27.4658867,19.873693 28.1615568,19.2171544 28.8,18.507 C29.406529,19.2476868 29.7851636,20.1484204 29.89,21.1 C29.9144205,21.5847336 30.2833813,21.9819462 30.765,22.042 C31.4998929,22.1281383 32.2441373,22.0868665 32.965,21.92 C32.9052034,22.4653561 32.818094,23.0073702 32.704,23.544 L32.637,23.838 C32.4647699,24.5769608 32.0872718,25.2522283 31.548,25.786 L30.425,26.56 C29.7693899,26.8592549 29.055616,27.0095231 28.335,27 C27.3297576,26.9732035 26.3843829,26.5161753 25.739,25.745 L25.736,25.746 Z M36.586,21.046 L36.501,21.372 C36.1403041,22.6585571 35.4279534,23.8190273 34.444,24.723 C34.489,24.58 34.544,24.442 34.579,24.295 L34.651,23.978 C34.89363,22.8399406 35.0275653,21.6813999 35.051,20.518 C35.0587239,20.1640106 34.8786803,19.8323277 34.5776325,19.6459452 C34.2765848,19.4595628 33.8994209,19.4462715 33.586,19.611 C33.003825,19.8823641 32.3760319,20.0424497 31.735,20.083 C31.3755233,18.572866 30.5328263,17.2213907 29.335,16.234 C29.1193925,16.0555479 28.8388683,15.9756169 28.5615832,16.0136272 C28.2842982,16.0516375 28.0356319,16.20411 27.876,16.434 C27.1803992,17.3779217 26.355678,18.2194739 25.426,18.934 C24.2431178,19.8645207 23.4159276,21.1732677 23.083,22.641 C22.9387559,23.4389364 22.97532,24.2590656 23.19,25.041 C23.05,24.915 22.909,24.789 22.78,24.652 C21.3086761,23.1160068 20.6924263,20.9516445 21.134,18.871 C21.6057341,17.0089629 22.7549511,15.3897899 24.357,14.33 C25.571977,13.6264112 26.5260284,12.5477963 27.076,11.256 C27.4707948,10.0018843 27.5191683,8.66435848 27.216,7.385 C27.0292009,6.45440013 26.7477372,5.54533926 26.376,4.672 C28.7328262,6.26717407 30.4031588,8.69074489 31.055,11.461 C31.1604565,11.8899386 31.5348424,12.1988781 31.976,12.221 C32.4215426,12.2593858 32.8342683,11.9840969 32.97,11.558 C33.196,10.92 33.361,10.281 33.48,9.794 C33.6250147,9.14160967 33.7252485,8.48006659 33.78,7.814 C34.2243623,8.26316511 34.6260845,8.75259676 34.98,9.276 C36.0128397,10.9344021 36.6594624,12.8038663 36.872,14.746 C37.1890504,16.8427122 37.092912,18.9811952 36.589,21.041 L36.586,21.046 Z" id="Shape"/><path d="M50.156,2.463 C49.321,3.776 42,15.423 42,20 C42,24.9705627 46.0294373,29 51,29 C55.9705627,29 60,24.9705627 60,20 C60,15.423 52.679,3.776 51.844,2.463 C51.6488244,2.19115246 51.3346559,2.02995792 51,2.02995792 C50.6653441,2.02995792 50.3511756,2.19115246 50.156,2.463 Z M51,27 C47.1358343,26.9955914 44.0044086,23.8641657 44,20 C44,16.992 48.474,9.035 51,4.894 C53.526,9.035 58,16.994 58,20 C57.9955914,23.8641657 54.8641657,26.9955914 51,27 Z" id="Shape"/><path d="M48,20 C48,19.4477153 47.5522847,19 47,19 C46.4477153,19 46,19.4477153 46,20 C46.0033061,22.7600532 48.2399468,24.9966939 51,25 C51.5522847,25 52,24.5522847 52,24 C52,23.4477153 51.5522847,23 51,23 C49.3431458,23 48,21.6568542 48,20 Z" id="Shape"/><path d="M17,10 L12.7,10 L16.875,2.486 C17.0473254,2.17611303 17.0426653,1.79814335 16.862752,1.49259925 C16.6828388,1.18705515 16.3545784,0.999630709 16,1 L5,1 C4.56089007,0.99991456 4.17309831,1.28629634 4.044,1.706 L0.044,14.706 C-0.0493051001,15.0093385 0.006917102,15.3389585 0.195500115,15.5942163 C0.384083128,15.8494741 0.68263574,16.0000618 1,16 L6.612,16 L3.052,26.684 C2.90104508,27.1417348 3.0980798,27.6420198 3.52062927,27.8738828 C3.94317873,28.1057458 4.47099813,28.0032055 4.776,27.63 L17.776,11.63 C18.0188826,11.330601 18.0680247,10.9182459 17.9023065,10.5701523 C17.7365883,10.2220586 17.3855277,10.0002294 17,10 Z M6.684,22.111 L8.948,15.311 C9.04753604,15.006823 8.99546492,14.6733799 8.80792785,14.4140327 C8.62039078,14.1546856 8.32004765,14.000771 8,14 L2.354,14 L5.738,3 L14.3,3 L10.125,10.514 C9.95267462,10.823887 9.95733474,11.2018567 10.137248,11.5074008 C10.3171612,11.8129448 10.6454216,12.0003693 11,12 L14.9,12 L6.684,22.111 Z" id="Shape"/><path d="M14,33 L4,33 C2.8954305,33 2,33.8954305 2,35 L2,45 C2,46.1045695 2.8954305,47 4,47 L14,47 C15.1045695,47 16,46.1045695 16,45 L16,35 C16,33.8954305 15.1045695,33 14,33 Z M4,45 L4,35 L14,35 L14,45 L4,45 Z" id="Shape"/><path d="M35,33 L25,33 C23.8954305,33 23,33.8954305 23,35 L23,45 C23,46.1045695 23.8954305,47 25,47 L35,47 C36.1045695,47 37,46.1045695 37,45 L37,35 C37,33.8954305 36.1045695,33 35,33 Z M25,45 L25,35 L35,35 L35,45 L25,45 Z" id="Shape"/><path d="M56,33 L46,33 C44.8954305,33 44,33.8954305 44,35 L44,45 C44,46.1045695 44.8954305,47 46,47 L56,47 C57.1045695,47 58,46.1045695 58,45 L58,35 C58,33.8954305 57.1045695,33 56,33 Z M46,45 L46,35 L56,35 L56,45 L46,45 Z" id="Shape"/><path d="M11.707,37.293 C11.3165001,36.9026181 10.6834999,36.9026181 10.293,37.293 L9,38.586 L7.707,37.293 C7.31462111,36.9140278 6.69091522,36.9194476 6.30518142,37.3051814 C5.91944763,37.6909152 5.91402779,38.3146211 6.293,38.707 L7.586,40 L6.293,41.293 C6.03304342,41.5440745 5.9287874,41.9158779 6.02030284,42.2655073 C6.11181828,42.6151368 6.38486324,42.8881817 6.73449268,42.9796972 C7.08412211,43.0712126 7.45592553,42.9669566 7.707,42.707 L9,41.414 L10.293,42.707 C10.6853789,43.0859722 11.3090848,43.0805524 11.6948186,42.6948186 C12.0805524,42.3090848 12.0859722,41.6853789 11.707,41.293 L10.414,40 L11.707,38.707 C12.0973819,38.3165001 12.0973819,37.6834999 11.707,37.293 Z" id="Shape"/><path d="M32.707,37.293 C32.3165001,36.9026181 31.6834999,36.9026181 31.293,37.293 L30,38.586 L28.707,37.293 C28.3146211,36.9140278 27.6909152,36.9194476 27.3051814,37.3051814 C26.9194476,37.6909152 26.9140278,38.3146211 27.293,38.707 L28.586,40 L27.293,41.293 C27.0330434,41.5440745 26.9287874,41.9158779 27.0203028,42.2655073 C27.1118183,42.6151368 27.3848632,42.8881817 27.7344927,42.9796972 C28.0841221,43.0712126 28.4559255,42.9669566 28.707,42.707 L30,41.414 L31.293,42.707 C31.6853789,43.0859722 32.3090848,43.0805524 32.6948186,42.6948186 C33.0805524,42.3090848 33.0859722,41.6853789 32.707,41.293 L31.414,40 L32.707,38.707 C33.0973819,38.3165001 33.0973819,37.6834999 32.707,37.293 Z" id="Shape"/><path d="M53.707,37.293 C53.3165001,36.9026181 52.6834999,36.9026181 52.293,37.293 L51,38.586 L49.707,37.293 C49.3146211,36.9140278 48.6909152,36.9194476 48.3051814,37.3051814 C47.9194476,37.6909152 47.9140278,38.3146211 48.293,38.707 L49.586,40 L48.293,41.293 C48.0330434,41.5440745 47.9287874,41.9158779 48.0203028,42.2655073 C48.1118183,42.6151368 48.3848632,42.8881817 48.7344927,42.9796972 C49.0841221,43.0712126 49.4559255,42.9669566 49.707,42.707 L51,41.414 L52.293,42.707 C52.6853789,43.0859722 53.3090848,43.0805524 53.6948186,42.6948186 C54.0805524,42.3090848 54.0859722,41.6853789 53.707,41.293 L52.414,40 L53.707,38.707 C54.0973819,38.3165001 54.0973819,37.6834999 53.707,37.293 Z" id="Shape"/></g></g></svg>
